<svg viewBox="0 0 426 228" xmlns="http://www.w3.org/2000/svg" role="img" aria-label="XE Academy">
  <title>XE Academy</title>
  <path d="M 20.820 20.331 C 26.694 26.013, 46.574 44.800, 64.998 62.081 C 118.244 112.022, 119.771 113.469, 119.888 114.085 C 119.950 114.406, 113.363 120.911, 105.250 128.539 C 97.138 136.167, 72.381 159.529, 50.235 180.454 L 9.969 218.500 47.625 218.762 L 85.281 219.024 90.891 213.806 C 93.976 210.937, 110.117 195.370, 126.760 179.214 C 143.403 163.058, 157.433 149.988, 157.938 150.170 C 158.443 150.351, 170.926 162.215, 185.678 176.533 C 200.430 190.851, 216.325 206.252, 221 210.757 L 229.500 218.949 322.750 218.975 L 416 219 416 193.500 L 416 168 333.203 168 L 250.407 168 222.576 141.313 L 194.746 114.625 204.213 105.563 C 209.420 100.578, 222.019 88.513, 232.211 78.750 L 250.741 61 333.371 61 L 416 61 416 35.500 L 416 10 323.116 10 L 230.231 10 204.456 34.750 C 190.279 48.362, 174.020 63.935, 168.324 69.356 L 157.968 79.213 154.734 76.608 C 152.955 75.176, 136.650 59.624, 118.500 42.048 L 85.500 10.093 47.820 10.046 L 10.141 10 20.820 20.331 M 252.835 89.760 C 251.058 89.998, 246.058 94.071, 237.835 101.979 L 225.500 113.842 237.993 126.429 L 250.485 139.015 311.904 138.758 L 373.323 138.500 373.412 114 L 373.500 89.500 314.500 89.452 C 282.050 89.425, 254.301 89.564, 252.835 89.760" fill="#6C5CE7"/>
</svg>
